<svg xmlns="http://www.w3.org/2000/svg" width="805.964" height="412.632" viewBox="0 0 805.964 412.632">
  <g id="Grupo_1" data-name="Grupo 1" transform="translate(1073.485 -125.92)">
    <path id="Polígono_10" data-name="Polígono 10" d="M30.99,0,61.98,52.983H0Z" transform="translate(-775.195 235.138) rotate(39)" fill="#a68f7b"/>
    <path id="Polígono_11" data-name="Polígono 11" d="M30.99,0,61.98,52.983H0Z" transform="translate(-751.082 373.414) rotate(18)" fill="#736e66"/>
    <path id="Polígono_12" data-name="Polígono 12" d="M30.99,0,61.98,52.983H0Z" transform="translate(-753.202 408.082) rotate(39)" fill="#fff"/>
    <path id="Polígono_13" data-name="Polígono 13" d="M30.99,0,61.98,52.983H0Z" transform="translate(-700.005 193.5) rotate(51)" fill="#fff"/>
    <path id="Polígono_14" data-name="Polígono 14" d="M30.99,0,61.98,52.983H0Z" transform="matrix(0.956, 0.292, -0.292, 0.956, -693.704, 253.829)" fill="#a68f7b"/>
    <path id="Polígono_15" data-name="Polígono 15" d="M30.99,0,61.98,52.983H0Z" transform="translate(-665.23 284.122) rotate(39)" fill="#d9d1c7"/>
    <path id="Polígono_16" data-name="Polígono 16" d="M30.99,0,61.98,52.983H0Z" transform="translate(-588.255 362.097) rotate(39)" fill="#d9d1c7"/>
    <path id="Polígono_17" data-name="Polígono 17" d="M31,0,62,53H0Z" transform="translate(-587 242.757)" fill="#fff"/>
    <path id="Polígono_18" data-name="Polígono 18" d="M30.99,0,61.98,52.983H0Z" transform="translate(-420.571 195.349) rotate(92)" fill="#a68f7b"/>
    <path id="Polígono_19" data-name="Polígono 19" d="M30.99,0,61.98,52.983H0Z" transform="translate(-516.491 297.823) rotate(71)" fill="#736e66"/>
    <path id="Polígono_20" data-name="Polígono 20" d="M30.99,0,61.98,52.983H0Z" transform="translate(-545.454 316.994) rotate(92)" fill="#fff"/>
    <path id="Polígono_21" data-name="Polígono 21" d="M30.99,0,61.98,52.983H0Z" transform="translate(-342.067 230.34) rotate(104)" fill="#fff"/>
    <path id="Polígono_22" data-name="Polígono 22" d="M30.99,0,61.98,52.983H0Z" transform="translate(-386.456 271.679) rotate(70)" fill="#a68f7b"/>
    <path id="Polígono_23" data-name="Polígono 23" d="M30.99,0,61.98,52.983H0Z" transform="translate(-393.513 312.65) rotate(92)" fill="#d9d1c7"/>
    <path id="Polígono_24" data-name="Polígono 24" d="M30.99,0,61.98,52.983H0Z" transform="translate(-409.462 421.051) rotate(92)" fill="#d9d1c7"/>
    <path id="Polígono_25" data-name="Polígono 25" d="M31,0,62,53H0Z" transform="matrix(0.602, 0.799, -0.799, 0.602, -313.397, 350.233)" fill="#fff"/>
    <path id="Polígono_26" data-name="Polígono 26" d="M30.99,0,61.98,52.983H0Z" transform="translate(-870.325 538.552) rotate(-107)" fill="#a68f7b"/>
    <path id="Polígono_27" data-name="Polígono 27" d="M30.99,0,61.98,52.983H0Z" transform="matrix(-0.616, -0.788, 0.788, -0.616, -812.992, 410.432)" fill="#736e66"/>
    <path id="Polígono_28" data-name="Polígono 28" d="M30.99,0,61.98,52.983H0Z" transform="translate(-791.848 382.876) rotate(-107)" fill="#fff"/>
    <path id="Polígono_29" data-name="Polígono 29" d="M30.99,0,61.98,52.983H0Z" transform="translate(-955.943 531.026) rotate(-95)" fill="#fff"/>
    <path id="Polígono_30" data-name="Polígono 30" d="M30.99,0,61.98,52.983H0Z" transform="translate(-927.431 477.487) rotate(-129)" fill="#a68f7b"/>
    <path id="Polígono_31" data-name="Polígono 31" d="M30.99,0,61.98,52.983H0Z" transform="translate(-934.098 436.451) rotate(-107)" fill="#d9d1c7"/>
    <path id="Polígono_32" data-name="Polígono 32" d="M30.99,0,61.98,52.983H0Z" transform="translate(-954.31 328.763) rotate(-107)" fill="#d9d1c7"/>
    <path id="Polígono_33" data-name="Polígono 33" d="M31,0,62,53H0Z" transform="translate(-1022.084 426.998) rotate(-146)" fill="#fff"/>
    <path id="Polígono_34" data-name="Polígono 34" d="M30.99,0,61.98,52.983H0Z" transform="translate(-970.195 285.427) rotate(39)" fill="#a68f7b"/>
    <path id="Polígono_35" data-name="Polígono 35" d="M30.99,0,61.98,52.983H0Z" transform="translate(-946.082 423.703) rotate(18)" fill="#736e66"/>
    <path id="Polígono_36" data-name="Polígono 36" d="M30.99,0,61.98,52.983H0Z" transform="translate(-948.202 458.371) rotate(39)" fill="#fff"/>
    <path id="Polígono_37" data-name="Polígono 37" d="M30.99,0,61.98,52.983H0Z" transform="translate(-895.005 243.789) rotate(51)" fill="#fff"/>
    <path id="Polígono_38" data-name="Polígono 38" d="M30.99,0,61.98,52.983H0Z" transform="matrix(0.956, 0.292, -0.292, 0.956, -888.704, 304.119)" fill="#a68f7b"/>
    <path id="Polígono_39" data-name="Polígono 39" d="M30.99,0,61.98,52.983H0Z" transform="translate(-860.23 334.411) rotate(39)" fill="#d9d1c7"/>
    <path id="Polígono_40" data-name="Polígono 40" d="M30.99,0,61.98,52.983H0Z" transform="translate(-783.255 412.386) rotate(39)" fill="#d9d1c7"/>
    <path id="Polígono_41" data-name="Polígono 41" d="M31,0,62,53H0Z" transform="translate(-782 293.046)" fill="#fff"/>
    <path id="Polígono_42" data-name="Polígono 42" d="M30.99,0,61.98,52.983H0Z" transform="matrix(-0.719, 0.695, -0.695, -0.719, -299.684, 243.783)" fill="#a68f7b"/>
    <path id="Polígono_43" data-name="Polígono 43" d="M30.99,0,61.98,52.983H0Z" transform="translate(-439.868 250.864) rotate(115)" fill="#736e66"/>
    <path id="Polígono_44" data-name="Polígono 44" d="M30.99,0,61.98,52.983H0Z" transform="matrix(-0.719, 0.695, -0.695, -0.719, -474.02, 244.535)" fill="#fff"/>
    <path id="Polígono_45" data-name="Polígono 45" d="M30.99,0,61.98,52.983H0Z" transform="matrix(-0.848, 0.53, -0.53, -0.848, -267.52, 323.486)" fill="#fff"/>
    <path id="Polígono_46" data-name="Polígono 46" d="M30.99,0,61.98,52.983H0Z" transform="translate(-328.168 322.388) rotate(114)" fill="#a68f7b"/>
    <path id="Polígono_47" data-name="Polígono 47" d="M30.99,0,61.98,52.983H0Z" transform="matrix(-0.719, 0.695, -0.695, -0.719, -361.705, 346.958)" fill="#d9d1c7"/>
    <path id="Polígono_48" data-name="Polígono 48" d="M30.99,0,61.98,52.983H0Z" transform="matrix(-0.719, 0.695, -0.695, -0.719, -448.479, 413.856)" fill="#d9d1c7"/>
    <path id="Polígono_49" data-name="Polígono 49" d="M31,0,62,53H0Z" transform="translate(-330.182 429.646) rotate(97)" fill="#fff"/>
    <path id="Polígono_50" data-name="Polígono 50" d="M30.99,0,61.98,52.983H0Z" transform="translate(-666.628 181.798) rotate(64)" fill="#a68f7b"/>
    <path id="Polígono_51" data-name="Polígono 51" d="M30.99,0,61.98,52.983H0Z" transform="matrix(0.731, 0.682, -0.682, 0.731, -703.212, 317.309)" fill="#736e66"/>
    <path id="Polígono_52" data-name="Polígono 52" d="M30.99,0,61.98,52.983H0Z" transform="translate(-719.785 347.833) rotate(64)" fill="#fff"/>
    <path id="Polígono_53" data-name="Polígono 53" d="M30.99,0,61.98,52.983H0Z" transform="translate(-580.886 175.838) rotate(76)" fill="#fff"/>
    <path id="Polígono_54" data-name="Polígono 54" d="M30.99,0,61.98,52.983H0Z" transform="translate(-600.672 233.178) rotate(42)" fill="#a68f7b"/>
    <path id="Polígono_55" data-name="Polígono 55" d="M30.99,0,61.98,52.983H0Z" transform="translate(-587.668 272.665) rotate(64)" fill="#d9d1c7"/>
    <path id="Polígono_56" data-name="Polígono 56" d="M30.99,0,61.98,52.983H0Z" transform="translate(-550.858 375.866) rotate(64)" fill="#d9d1c7"/>
    <path id="Polígono_57" data-name="Polígono 57" d="M31,0,62,53H0Z" transform="translate(-499.285 268.238) rotate(25)" fill="#fff"/>
    <path id="Polígono_58" data-name="Polígono 58" d="M30.99,0,61.98,52.983H0Z" transform="translate(-847.772 232.77) rotate(39)" fill="#a68f7b"/>
    <path id="Polígono_59" data-name="Polígono 59" d="M30.99,0,61.98,52.983H0Z" transform="translate(-823.659 371.046) rotate(18)" fill="#736e66"/>
    <path id="Polígono_60" data-name="Polígono 60" d="M30.99,0,61.98,52.983H0Z" transform="translate(-825.779 405.714) rotate(39)" fill="#fff"/>
    <path id="Polígono_61" data-name="Polígono 61" d="M30.99,0,61.98,52.983H0Z" transform="translate(-772.583 191.132) rotate(51)" fill="#fff"/>
    <path id="Polígono_62" data-name="Polígono 62" d="M30.99,0,61.98,52.983H0Z" transform="matrix(0.956, 0.292, -0.292, 0.956, -766.281, 251.461)" fill="#a68f7b"/>
    <path id="Polígono_63" data-name="Polígono 63" d="M30.99,0,61.98,52.983H0Z" transform="translate(-737.807 281.754) rotate(39)" fill="#d9d1c7"/>
    <path id="Polígono_64" data-name="Polígono 64" d="M30.99,0,61.98,52.983H0Z" transform="translate(-660.832 359.729) rotate(39)" fill="#d9d1c7"/>
    <path id="Polígono_65" data-name="Polígono 65" d="M31,0,62,53H0Z" transform="translate(-659.577 240.389)" fill="#fff"/>
    <path id="Polígono_66" data-name="Polígono 66" d="M30.99,0,61.98,52.983H0Z" transform="matrix(0.934, 0.358, -0.358, 0.934, -1002.609, 195.988)" fill="#a68f7b"/>
    <path id="Polígono_67" data-name="Polígono 67" d="M30.99,0,61.98,52.983H0Z" transform="translate(-936.947 320.045)" fill="#736e66"/>
    <path id="Polígono_68" data-name="Polígono 68" d="M30.99,0,61.98,52.983H0Z" transform="matrix(0.934, 0.358, -0.358, 0.934, -928.25, 353.671)" fill="#fff"/>
    <path id="Polígono_69" data-name="Polígono 69" d="M30.99,0,61.98,52.983H0Z" transform="matrix(0.839, 0.545, -0.545, 0.839, -943.966, 133.154)" fill="#fff"/>
    <path id="Polígono_70" data-name="Polígono 70" d="M30.99,0,61.98,52.983H0Z" transform="translate(-919.331 188.583) rotate(-1)" fill="#a68f7b"/>
    <path id="Polígono_71" data-name="Polígono 71" d="M30.99,0,61.98,52.983H0Z" transform="matrix(0.934, 0.358, -0.358, 0.934, -882.89, 208.594)" fill="#d9d1c7"/>
    <path id="Polígono_72" data-name="Polígono 72" d="M30.99,0,61.98,52.983H0Z" transform="matrix(0.934, 0.358, -0.358, 0.934, -785.587, 258.966)" fill="#d9d1c7"/>
    <path id="Polígono_73" data-name="Polígono 73" d="M31,0,62,53H0Z" transform="matrix(0.951, -0.309, 0.309, 0.951, -821.271, 145.079)" fill="#fff"/>
    <path id="Polígono_74" data-name="Polígono 74" d="M31,0,62,53H0Z" transform="translate(-652.598 431.645)" fill="#fff"/>
    <path id="Polígono_75" data-name="Polígono 75" d="M31,0,62,53H0Z" transform="matrix(0.839, 0.545, -0.545, 0.839, -692.715, 395.976)" fill="#fff"/>
    <path id="Polígono_76" data-name="Polígono 76" d="M31,0,62,53H0Z" transform="translate(-670.458 328.972)" fill="#fff"/>
    <path id="Polígono_77" data-name="Polígono 77" d="M31,0,62,53H0Z" transform="translate(-549.746 430.18) rotate(-45)" fill="#fff"/>
    <path id="Polígono_78" data-name="Polígono 78" d="M30.99,0,61.98,52.983H0Z" transform="translate(-378.554 360.879) rotate(71)" fill="#736e66"/>
    <path id="Polígono_79" data-name="Polígono 79" d="M30.99,0,61.98,52.983H0Z" transform="matrix(0.94, 0.342, -0.342, 0.94, -584.423, 196.333)" fill="#736e66"/>
    <path id="Polígono_80" data-name="Polígono 80" d="M30.99,0,61.98,52.983H0Z" transform="matrix(0.454, -0.891, 0.891, 0.454, -863.452, 226.931)" fill="#736e66"/>
    <path id="Polígono_81" data-name="Polígono 81" d="M30.99,0,61.98,52.983H0Z" transform="translate(-781.388 203.379) rotate(-31)" fill="#736e66"/>
    <path id="Polígono_82" data-name="Polígono 82" d="M30.99,0,61.98,52.983H0Z" transform="translate(-305.629 312.307) rotate(71)" fill="#736e66"/>
    <path id="Polígono_83" data-name="Polígono 83" d="M30.99,0,61.98,52.983H0Z" transform="translate(-514.491 375.245) rotate(71)" fill="#736e66"/>
    <path id="Polígono_84" data-name="Polígono 84" d="M30.99,0,61.98,52.983H0Z" transform="translate(-988.579 251.461) rotate(71)" fill="#736e66"/>
    <path id="Polígono_85" data-name="Polígono 85" d="M30.99,0,61.98,52.983H0Z" transform="translate(-606.64 393.719) rotate(71)" fill="#736e66"/>
    <path id="Polígono_86" data-name="Polígono 86" d="M30.99,0,61.98,52.983H0Z" transform="matrix(-0.848, -0.53, 0.53, -0.848, -640.356, 279.277)" fill="#736e66"/>
    <path id="Polígono_87" data-name="Polígono 87" d="M30.99,0,61.98,52.983H0Z" transform="translate(-333.2 221.039) rotate(71)" fill="#736e66"/>
  </g>
</svg>
