<svg xmlns="http://www.w3.org/2000/svg" width="1307.008" height="809.79" viewBox="0 0 1307.008 809.79">
  <g id="Grupo_1" data-name="Grupo 1" transform="translate(2906.914 371.08)">
    <path id="Polígono_10" data-name="Polígono 10" d="M30.99,0,61.98,52.983H0Z" transform="translate(-2447.392 -116.28) rotate(39)" fill="#a68f7b"/>
    <path id="Polígono_11" data-name="Polígono 11" d="M30.99,0,61.98,52.983H0Z" transform="translate(-2348.688 196.083) rotate(18)" fill="#736e66"/>
    <path id="Polígono_12" data-name="Polígono 12" d="M30.99,0,61.98,52.983H0Z" transform="translate(-2382.779 354.225) rotate(39)" fill="#fff"/>
    <path id="Polígono_13" data-name="Polígono 13" d="M30.99,0,61.98,52.983H0Z" transform="translate(-2242.85 -213.057) rotate(51)" fill="#fff"/>
    <path id="Polígono_14" data-name="Polígono 14" d="M30.99,0,61.98,52.983H0Z" transform="matrix(0.956, 0.292, -0.292, 0.956, -2179.898, -78.321)" fill="#a68f7b"/>
    <path id="Polígono_15" data-name="Polígono 15" d="M30.99,0,61.98,52.983H0Z" transform="translate(-2124.325 -2.002) rotate(39)" fill="#d9d1c7"/>
    <path id="Polígono_16" data-name="Polígono 16" d="M30.99,0,61.98,52.983H0Z" transform="translate(-1898.178 179.91) rotate(39)" fill="#d9d1c7"/>
    <path id="Polígono_17" data-name="Polígono 17" d="M31,0,62,53H0Z" transform="translate(-1854.599 -110.275)" fill="#fff"/>
    <path id="Polígono_19" data-name="Polígono 19" d="M30.99,0,61.98,52.983H0Z" transform="translate(-1734.81 27.018) rotate(71)" fill="#736e66"/>
    <path id="Polígono_20" data-name="Polígono 20" d="M30.99,0,61.98,52.983H0Z" transform="translate(-1846.842 60.372) rotate(92)" fill="#fff"/>
    <path id="Polígono_26" data-name="Polígono 26" d="M30.99,0,61.98,52.983H0Z" transform="translate(-2746.836 364.483) rotate(-107)" fill="#a68f7b"/>
    <path id="Polígono_27" data-name="Polígono 27" d="M30.99,0,61.98,52.983H0Z" transform="matrix(-0.616, -0.788, 0.788, -0.616, -2568.72, 185.137)" fill="#736e66"/>
    <path id="Polígono_28" data-name="Polígono 28" d="M30.99,0,61.98,52.983H0Z" transform="translate(-2475.633 124.839) rotate(-107)" fill="#fff"/>
    <path id="Polígono_31" data-name="Polígono 31" d="M30.99,0,61.98,52.983H0Z" transform="translate(-2888.793 248.68) rotate(-107)" fill="#d9d1c7"/>
    <path id="Polígono_37" data-name="Polígono 37" d="M30.99,0,61.98,52.983H0Z" transform="translate(-2815.052 -95.465) rotate(51)" fill="#fff"/>
    <path id="Polígono_38" data-name="Polígono 38" d="M30.99,0,61.98,52.983H0Z" transform="matrix(0.956, 0.292, -0.292, 0.956, -2749.305, 36.781)" fill="#a68f7b"/>
    <path id="Polígono_39" data-name="Polígono 39" d="M30.99,0,61.98,52.983H0Z" transform="translate(-2697.22 115.321) rotate(39)" fill="#d9d1c7"/>
    <path id="Polígono_40" data-name="Polígono 40" d="M30.99,0,61.98,52.983H0Z" transform="translate(-2471.073 358.529) rotate(39)" fill="#d9d1c7"/>
    <path id="Polígono_41" data-name="Polígono 41" d="M31,0,62,53H0Z" transform="translate(-2417.583 1.981)" fill="#fff"/>
    <path id="Polígono_44" data-name="Polígono 44" d="M30.99,0,61.98,52.983H0Z" transform="matrix(-0.719, 0.695, -0.695, -0.719, -1655.841, -144.839)" fill="#fff"/>
    <path id="Polígono_50" data-name="Polígono 50" d="M30.99,0,61.98,52.983H0Z" transform="translate(-2162.498 -315.202) rotate(64)" fill="#a68f7b"/>
    <path id="Polígono_51" data-name="Polígono 51" d="M30.99,0,61.98,52.983H0Z" transform="matrix(0.731, 0.682, -0.682, 0.731, -2241.364, 76.068)" fill="#736e66"/>
    <path id="Polígono_52" data-name="Polígono 52" d="M30.99,0,61.98,52.983H0Z" transform="translate(-2317.722 145.528) rotate(64)" fill="#fff"/>
    <path id="Polígono_53" data-name="Polígono 53" d="M30.99,0,61.98,52.983H0Z" transform="translate(-1929.004 -321.162) rotate(76)" fill="#fff"/>
    <path id="Polígono_54" data-name="Polígono 54" d="M30.99,0,61.98,52.983H0Z" transform="translate(-1938.743 -120.566) rotate(42)" fill="#a68f7b"/>
    <path id="Polígono_55" data-name="Polígono 55" d="M30.99,0,61.98,52.983H0Z" transform="translate(-1931.926 -29.46) rotate(64)" fill="#d9d1c7"/>
    <path id="Polígono_56" data-name="Polígono 56" d="M30.99,0,61.98,52.983H0Z" transform="translate(-1824.438 210.788) rotate(64)" fill="#d9d1c7"/>
    <path id="Polígono_58" data-name="Polígono 58" d="M30.99,0,61.98,52.983H0Z" transform="translate(-2660.618 -121.804) rotate(39)" fill="#a68f7b"/>
    <path id="Polígono_59" data-name="Polígono 59" d="M30.99,0,61.98,52.983H0Z" transform="translate(-2560.722 190.657) rotate(18)" fill="#736e66"/>
    <path id="Polígono_60" data-name="Polígono 60" d="M30.99,0,61.98,52.983H0Z" transform="translate(-2596.005 351.857) rotate(39)" fill="#fff"/>
    <path id="Polígono_61" data-name="Polígono 61" d="M30.99,0,61.98,52.983H0Z" transform="translate(-2455.818 -218.594) rotate(51)" fill="#fff"/>
    <path id="Polígono_62" data-name="Polígono 62" d="M30.99,0,61.98,52.983H0Z" transform="matrix(0.956, 0.292, -0.292, 0.956, -2391.826, -83.741)" fill="#a68f7b"/>
    <path id="Polígono_63" data-name="Polígono 63" d="M30.99,0,61.98,52.983H0Z" transform="translate(-2337.552 -7.526) rotate(39)" fill="#d9d1c7"/>
    <path id="Polígono_64" data-name="Polígono 64" d="M30.99,0,61.98,52.983H0Z" transform="translate(-2111.405 174.386) rotate(39)" fill="#d9d1c7"/>
    <path id="Polígono_65" data-name="Polígono 65" d="M31,0,62,53H0Z" transform="translate(-2064.136 -115.561)" fill="#fff"/>
    <path id="Polígono_67" data-name="Polígono 67" d="M30.99,0,61.98,52.983H0Z" transform="translate(-2864.937 62.238)" fill="#736e66"/>
    <path id="Polígono_68" data-name="Polígono 68" d="M30.99,0,61.98,52.983H0Z" transform="matrix(0.934, 0.358, -0.358, 0.934, -2870.8, 152.682)" fill="#fff"/>
    <path id="Polígono_70" data-name="Polígono 70" d="M30.99,0,61.98,52.983H0Z" transform="translate(-2813.721 -308.417) rotate(-1)" fill="#a68f7b"/>
    <path id="Polígono_71" data-name="Polígono 71" d="M30.99,0,61.98,52.983H0Z" transform="matrix(0.934, 0.358, -0.358, 0.934, -2738.097, -180.954)" fill="#d9d1c7"/>
    <path id="Polígono_72" data-name="Polígono 72" d="M30.99,0,61.98,52.983H0Z" transform="matrix(0.934, 0.358, -0.358, 0.934, -2453.433, -65.114)" fill="#d9d1c7"/>
    <path id="Polígono_73" data-name="Polígono 73" d="M31,0,62,53H0Z" transform="matrix(0.951, -0.309, 0.309, 0.951, -2522.27, -351.921)" fill="#fff"/>
    <path id="Polígono_74" data-name="Polígono 74" d="M31,0,62,53H0Z" transform="translate(-2043.988 377.788)" fill="#fff"/>
    <path id="Polígono_75" data-name="Polígono 75" d="M31,0,62,53H0Z" transform="matrix(0.839, 0.545, -0.545, 0.839, -2197.004, 256.836)" fill="#fff"/>
    <path id="Polígono_76" data-name="Polígono 76" d="M31,0,62,53H0Z" transform="translate(-2095.549 82.175)" fill="#fff"/>
    <path id="Polígono_77" data-name="Polígono 77" d="M31,0,62,53H0Z" transform="translate(-1720.697 281.499) rotate(-45)" fill="#fff"/>
    <path id="Polígono_79" data-name="Polígono 79" d="M30.99,0,61.98,52.983H0Z" transform="matrix(0.94, 0.342, -0.342, 0.94, -1863.86, -209.336)" fill="#736e66"/>
    <path id="Polígono_80" data-name="Polígono 80" d="M30.99,0,61.98,52.983H0Z" transform="matrix(0.454, -0.891, 0.891, 0.454, -2645.503, -270.069)" fill="#736e66"/>
    <path id="Polígono_81" data-name="Polígono 81" d="M30.99,0,61.98,52.983H0Z" transform="translate(-2401.827 -293.621) rotate(-31)" fill="#736e66"/>
    <path id="Polígono_83" data-name="Polígono 83" d="M30.99,0,61.98,52.983H0Z" transform="translate(-1728.993 206.315) rotate(71)" fill="#736e66"/>
    <path id="Polígono_85" data-name="Polígono 85" d="M30.99,0,61.98,52.983H0Z" transform="translate(-1996.991 249.096) rotate(71)" fill="#736e66"/>
    <path id="Polígono_86" data-name="Polígono 86" d="M30.99,0,61.98,52.983H0Z" transform="matrix(-0.848, -0.53, 0.53, -0.848, -2089.377, -117.701)" fill="#736e66"/>
    <path id="Polígono_87" data-name="Polígono 87" d="M30.99,0,61.98,52.983H0Z" transform="translate(-2227.562 358.265) rotate(18)" fill="#736e66"/>
    <path id="Polígono_88" data-name="Polígono 88" d="M30.99,0,61.98,52.983H0Z" transform="translate(-1840.987 347.317) rotate(18)" fill="#736e66"/>
    <path id="Polígono_89" data-name="Polígono 89" d="M30.99,0,61.98,52.983H0Z" transform="translate(-1786.345 -321.646) rotate(18)" fill="#736e66"/>
    <path id="Polígono_90" data-name="Polígono 90" d="M30.99,0,61.98,52.983H0Z" transform="translate(-2073.855 -317.859) rotate(18)" fill="#736e66"/>
    <path id="Polígono_91" data-name="Polígono 91" d="M30.99,0,61.98,52.983H0Z" transform="translate(-2577.766 -57.523) rotate(18)" fill="#736e66"/>
    <path id="Polígono_92" data-name="Polígono 92" d="M30.99,0,61.98,52.983H0Z" transform="translate(-1682.23 -71.544) rotate(18)" fill="#736e66"/>
    <path id="Polígono_93" data-name="Polígono 93" d="M30.99,0,61.98,52.983H0Z" transform="translate(-2445.529 278.317) rotate(18)" fill="#736e66"/>
    <path id="Polígono_94" data-name="Polígono 94" d="M30.99,0,61.98,52.983H0Z" transform="translate(-1648.073 102.871) rotate(39)" fill="#a68f7b"/>
  </g>
</svg>
